<?xml version="1.0" encoding="UTF-8"?>
<!DOCTYPE svg PUBLIC "-//W3C//DTD SVG 1.1//EN" "http://www.w3.org/Graphics/SVG/1.1/DTD/svg11.dtd">
<!-- Creator: CorelDRAW X7 -->
<svg xmlns="http://www.w3.org/2000/svg" xml:space="preserve" width="38.386mm" height="8.414mm" version="1.1" style="shape-rendering:geometricPrecision; text-rendering:geometricPrecision; image-rendering:optimizeQuality; fill-rule:evenodd; clip-rule:evenodd"
viewBox="0 0 3839 841"
 xmlns:xlink="http://www.w3.org/1999/xlink">
 <defs>
  <style type="text/css">
   <![CDATA[
    .str0 {stroke:#D0D5DD;stroke-width:5.29}
    .fil2 {fill:none}
    .fil0 {fill:white}
    .fil6 {fill:white}
    .fil1 {fill:url(#id0)}
    .fil3 {fill:url(#id1)}
    .fil4 {fill:url(#id2)}
    .fil5 {fill:url(#id3);fill-opacity:0.309804}
   ]]>
  </style>
  <linearGradient id="id0" gradientUnits="userSpaceOnUse" x1="420.69" y1="0.01" x2="420.69" y2="841.39">
   <stop offset="0" style="stop-opacity:1; stop-color:white"/>
   <stop offset="0.0392157" style="stop-opacity:1; stop-color:white"/>
   <stop offset="1" style="stop-opacity:1; stop-color:#D0D5DD"/>
  </linearGradient>
  <linearGradient id="id1" gradientUnits="userSpaceOnUse" x1="222.58" y1="632.95" x2="618.8" y2="213.45">
   <stop offset="0" style="stop-opacity:1; stop-color:#0076C1"/>
   <stop offset="0.611765" style="stop-opacity:1; stop-color:#1E95CF"/>
   <stop offset="0.0392157" style="stop-opacity:1; stop-color:#0076C1"/>
   <stop offset="0.0705882" style="stop-opacity:1; stop-color:#0B82C6"/>
   <stop offset="0.278431" style="stop-opacity:1; stop-color:#269ED3"/>
   <stop offset="0.45098" style="stop-opacity:1; stop-color:#36AFDA"/>
   <stop offset="0.588235" style="stop-opacity:1; stop-color:#3CB5DD"/>
   <stop offset="1" style="stop-opacity:1; stop-color:#3CB5DD"/>
  </linearGradient>
  <linearGradient id="id2" gradientUnits="userSpaceOnUse" x1="290.87" y1="516.21" x2="612.57" y2="175.59">
   <stop offset="0" style="stop-opacity:1; stop-color:#00A482"/>
   <stop offset="0.54902" style="stop-opacity:1; stop-color:#3CC082"/>
   <stop offset="0.0392157" style="stop-opacity:1; stop-color:#00A482"/>
   <stop offset="1" style="stop-opacity:1; stop-color:#79DD83"/>
  </linearGradient>
  <linearGradient id="id3" gradientUnits="userSpaceOnUse" x1="499.12" y1="324.6" x2="672.76" y2="194.36">
   <stop offset="0" style="stop-opacity:1; stop-color:#00A482"/>
   <stop offset="0.6" style="stop-opacity:1; stop-color:#3CC082"/>
   <stop offset="0.0392157" style="stop-opacity:1; stop-color:#00A482"/>
   <stop offset="1" style="stop-opacity:1; stop-color:#79DD83"/>
  </linearGradient>
 </defs>
 <g id="Layer_x0020_1">
  <metadata id="CorelCorpID_0Corel-Layer"/>
  <g id="_2760547633264" filter="url(#filter0_dd_4155_249)">
   <path class="fil0" d="M209 0l423 0c116,0 209,94 209,209l0 423c0,116 -93,209 -209,209l-423 0c-115,0 -209,-93 -209,-209l0 -423c0,-115 94,-209 209,-209z"/>
   <path class="fil1" d="M209 0l423 0c116,0 209,94 209,209l0 423c0,116 -93,209 -209,209l-423 0c-115,0 -209,-93 -209,-209l0 -423c0,-115 94,-209 209,-209z"/>
   <path class="fil2 str0" d="M209 0l423 0c116,0 209,94 209,209l0 423c0,116 -93,209 -209,209l-423 0c-115,0 -209,-93 -209,-209l0 -423c0,-115 94,-209 209,-209z"/>
   <path class="fil3" d="M404 293c115,-46 241,-9 298,46 13,12 23,24 32,36 5,-28 6,-56 1,-84 -18,-100 -113,-156 -197,-127 -84,29 -117,86 -117,86 0,0 -33,-57 -117,-86 -85,-29 -179,27 -197,127 -14,74 12,155 65,226 12,4 23,6 36,8 75,10 102,-10 134,-24 21,-9 37,2 36,9 -1,11 -43,29 -34,33 35,16 79,16 111,-12 41,-34 56,-11 56,-11 0,0 -20,52 -81,77 -50,22 -103,27 -152,21 42,30 90,55 143,72 151,-50 262,-159 302,-272 -27,-26 -60,-42 -99,-48 -75,-12 -102,8 -134,21 -21,8 -37,-2 -36,-9 2,-11 43,-29 35,-33 -35,-17 -79,-18 -112,10 -41,33 -56,10 -56,10 0,0 21,-51 83,-76zm-29 141l29 0 0 -29 33 0 0 29 29 0 0 33 -29 0 0 29 -33 0 0 -29 -29 0 0 -33z"/>
   <path class="fil4" d="M375 434l29 0 0 -29 33 0 0 29 29 0 0 33 -28 0c42,22 121,54 216,69 31,-37 55,-77 69,-118 -27,-26 -60,-42 -99,-48 -75,-12 -102,8 -134,21 -21,8 -37,-2 -36,-9 2,-11 43,-29 35,-33 -35,-17 -79,-18 -112,10 -41,33 -56,10 -56,10 0,0 21,-51 83,-76 115,-46 241,-9 298,46 13,12 23,24 32,36 5,-28 6,-56 1,-84 -18,-100 -113,-156 -197,-127 -84,29 -117,86 -117,86 0,0 -33,-57 -117,-86 -49,-17 -100,-6 -139,26 18,39 40,75 100,148 50,59 110,96 110,96z"/>
   <path class="fil5" d="M640 200c-80,-40 -162,22 -188,55 45,-10 84,-15 134,-4 73,15 101,42 134,81 -6,-73 -52,-118 -80,-132z"/>
  </g>
  <path class="fil0" d="M1453 316c22,15 37,34 45,58l78 -36c-8,-22 -21,-43 -40,-62 -19,-19 -42,-34 -69,-45 -26,-12 -57,-18 -90,-18 -34,0 -66,7 -94,19 -29,12 -54,29 -76,51 -21,21 -38,47 -49,77 -12,30 -18,62 -18,97 0,35 6,68 18,97 12,30 28,56 50,78 21,22 46,39 75,51 28,13 60,19 94,19 33,0 64,-6 90,-17 27,-12 50,-27 69,-45 19,-19 32,-40 40,-63l-78 -36c-8,24 -23,44 -45,59 -21,15 -46,23 -76,23 -30,0 -56,-7 -79,-21 -23,-14 -40,-33 -53,-58 -12,-25 -18,-54 -18,-87 0,-33 6,-61 18,-86 13,-25 30,-44 53,-58 23,-14 49,-21 79,-21 30,0 55,8 76,24z"/>
  <path class="fil0" d="M1841 539l0 14c0,16 -4,30 -11,43 -7,14 -18,24 -31,32 -13,7 -29,10 -46,10 -14,0 -25,-3 -34,-10 -9,-7 -14,-17 -14,-28 0,-13 4,-23 12,-30 8,-8 21,-13 37,-16l87 -15zm-125 -186c-20,7 -37,18 -52,31 -14,13 -25,29 -32,47l68 33c7,-15 17,-28 30,-37 14,-10 30,-15 48,-15 19,0 34,5 45,15 12,10 18,22 18,37l0 11 -103 17c-27,4 -49,12 -67,22 -18,10 -31,23 -39,38 -9,15 -13,32 -13,51 0,20 5,37 15,52 9,15 23,27 41,35 18,8 39,12 63,12 19,0 36,-3 52,-8 15,-5 29,-13 42,-23 5,-4 9,-8 14,-13l0 36 78 0 0 -230c0,-24 -6,-46 -18,-64 -12,-18 -29,-33 -50,-43 -22,-11 -47,-16 -75,-16 -23,0 -45,4 -65,12z"/>
  <path class="fil0" d="M2001 349l0 345 83 0 0 -192c0,-26 8,-47 22,-61 14,-15 33,-22 57,-22l30 0 0 -74 -20 0c-24,0 -45,5 -63,15 -13,8 -23,20 -31,37l0 -48 -78 0z"/>
  <path class="fil6" d="M2313 481c1,-7 3,-14 6,-20 7,-17 17,-29 31,-38 13,-9 29,-13 46,-13 18,0 34,4 47,13 13,9 22,21 28,36 2,7 4,15 5,22l-163 0zm-4 -116c-26,15 -47,37 -62,64 -15,26 -22,57 -22,92 0,33 7,64 22,91 15,28 36,50 62,66 27,16 58,24 94,24 23,0 45,-4 64,-11 20,-7 37,-17 52,-30 14,-13 25,-27 32,-44l-68 -33c-7,14 -18,25 -32,33 -13,8 -29,12 -48,12 -19,0 -36,-5 -51,-14 -14,-8 -25,-21 -33,-37 -4,-10 -7,-21 -8,-33l249 0c2,-5 3,-10 3,-17 1,-6 2,-12 2,-18 0,-23 -4,-45 -12,-65 -8,-20 -19,-38 -33,-54 -14,-15 -32,-28 -53,-37 -20,-8 -44,-13 -71,-13 -32,0 -61,8 -87,24z"/>
  <path class="fil0" d="M2721 297l91 0c16,0 30,3 41,10 11,6 20,14 27,25 6,11 9,24 9,38 0,15 -3,27 -9,38 -7,11 -16,20 -27,26 -11,6 -25,9 -41,9l-91 0 0 -146zm-86 -76l0 473 86 0 0 -174 90 0c32,0 61,-6 85,-18 25,-12 44,-29 58,-51 14,-22 22,-49 22,-81 0,-31 -7,-58 -21,-80 -14,-23 -34,-40 -59,-51 -24,-12 -53,-18 -85,-18l-176 0z"/>
  <path class="fil0" d="M3408 349l0 202c0,16 -3,29 -9,40 -6,11 -14,19 -24,26 -11,6 -23,9 -37,9 -13,0 -25,-3 -36,-9 -11,-7 -19,-15 -25,-26 -6,-11 -8,-23 -8,-38l0 -204 -84 0 0 211c0,29 5,53 16,74 10,22 25,38 45,50 20,12 43,18 70,18 24,0 45,-5 64,-16 14,-8 25,-19 33,-33l0 41 78 0 0 -345 -83 0z"/>
  <polygon class="fil0" points="3033,213 3033,694 3116,694 3116,213 "/>
  <path class="fil0" d="M3632 354c-19,9 -34,22 -45,38 -10,16 -16,34 -16,55 0,24 8,44 22,62 16,17 38,30 67,38l57 16c7,2 13,5 19,9 7,3 12,6 15,11 4,4 6,10 6,17 0,11 -5,19 -14,26 -9,7 -21,10 -36,10 -19,0 -37,-5 -53,-16 -16,-11 -28,-26 -37,-46l-62 30c10,30 29,54 56,72 27,17 59,26 96,26 26,0 49,-5 69,-14 19,-8 34,-21 45,-36 11,-16 17,-35 17,-56 0,-24 -8,-45 -24,-62 -15,-17 -37,-29 -65,-38l-55 -16c-8,-3 -15,-6 -22,-9 -6,-3 -10,-6 -14,-11 -3,-5 -5,-10 -5,-17 0,-10 4,-18 12,-24 8,-7 19,-10 33,-10 18,0 33,5 47,14 14,9 24,22 30,38l64 -30c-11,-29 -29,-51 -54,-66 -25,-16 -53,-24 -86,-24 -25,0 -47,5 -67,13z"/>
 </g>
</svg>
